<svg width="11" height="13" viewBox="0 0 11 13" fill="none" xmlns="http://www.w3.org/2000/svg">
<g clip-path="url(#clip0_7_16)">
<path d="M6.53125 0.609375C6.53125 0.94707 6.76113 1.21875 7.04688 1.21875H9.24043L4.44727 6.88086C4.24531 7.11953 4.24531 7.50547 4.44727 7.7416C4.64922 7.97773 4.97578 7.98027 5.17559 7.7416L9.9666 2.07949V4.67188C9.9666 5.00957 10.1965 5.28125 10.4822 5.28125C10.768 5.28125 10.9979 5.00957 10.9979 4.67188V0.609375C10.9979 0.27168 10.768 0 10.4822 0H7.04688C6.76113 0 6.53125 0.27168 6.53125 0.609375ZM1.54688 0.8125C0.691797 0.8125 0 1.63008 0 2.64062V11.1719C0 12.1824 0.691797 13 1.54688 13H8.76563C9.6207 13 10.3125 12.1824 10.3125 11.1719V7.92188C10.3125 7.58418 10.0826 7.3125 9.79688 7.3125C9.51113 7.3125 9.28125 7.58418 9.28125 7.92188V11.1719C9.28125 11.5096 9.05137 11.7812 8.76563 11.7812H1.54688C1.26113 11.7812 1.03125 11.5096 1.03125 11.1719V2.64062C1.03125 2.30293 1.26113 2.03125 1.54688 2.03125H4.29688C4.58262 2.03125 4.8125 1.75957 4.8125 1.42188C4.8125 1.08418 4.58262 0.8125 4.29688 0.8125H1.54688Z" fill="#999AA4"/>
</g>
<defs>
<clipPath id="clip0_7_16">
<rect width="11" height="13" fill="white"/>
</clipPath>
</defs>
</svg>
