<svg width="14" height="13" viewBox="0 0 14 13" fill="none" xmlns="http://www.w3.org/2000/svg">
<path d="M13.3027 0L7.84 4.06387L8.8502 1.66624L13.3027 0Z" fill="#E2761B"/>
<path d="M0.691765 0L6.11059 4.10237L5.1498 1.66624L0.691765 0Z" fill="#E4761B"/>
<path d="M11.3373 9.42005L9.88235 11.6527L12.9953 12.5106L13.8902 9.46954L11.3373 9.42005Z" fill="#E4761B"/>
<path d="M0.115294 9.46954L1.00471 12.5106L4.11765 11.6527L2.66275 9.42005L0.115294 9.46954Z" fill="#E4761B"/>
<path d="M3.94196 5.64763L3.07451 6.96193L6.16549 7.09941L6.05569 3.77242L3.94196 5.64763Z" fill="#E4761B"/>
<path d="M10.0526 5.64763L7.91137 3.73393L7.84 7.09941L10.9255 6.96193L10.0526 5.64763Z" fill="#E4761B"/>
<path d="M4.11765 11.6527L5.97333 10.7453L4.3702 9.49154L4.11765 11.6527Z" fill="#E4761B"/>
<path d="M8.02118 10.7453L9.88235 11.6527L9.62432 9.49154L8.02118 10.7453Z" fill="#E4761B"/>
<path d="M9.88235 11.6527L8.02118 10.7453L8.16941 11.9607L8.15294 12.4721L9.88235 11.6527Z" fill="#D7C1B3"/>
<path d="M4.11765 11.6527L5.84706 12.4721L5.83608 11.9607L5.97333 10.7453L4.11765 11.6527Z" fill="#D7C1B3"/>
<path d="M5.87451 8.68866L4.32627 8.23223L5.41882 7.73181L5.87451 8.68866Z" fill="#233447"/>
<path d="M8.12 8.68866L8.57569 7.73181L9.67373 8.23223L8.12 8.68866Z" fill="#233447"/>
<path d="M4.11765 11.6527L4.38118 9.42005L2.66275 9.46954L4.11765 11.6527Z" fill="#CD6116"/>
<path d="M9.61882 9.42005L9.88235 11.6527L11.3373 9.46954L9.61882 9.42005Z" fill="#CD6116"/>
<path d="M10.9255 6.96193L7.84 7.09941L8.12549 8.68866L8.58118 7.73181L9.67922 8.23223L10.9255 6.96193Z" fill="#CD6116"/>
<path d="M4.32627 8.23223L5.42431 7.73181L5.87451 8.68866L6.16549 7.09941L3.07451 6.96193L4.32627 8.23223Z" fill="#CD6116"/>
<path d="M3.07451 6.96193L4.3702 9.49154L4.32627 8.23223L3.07451 6.96193Z" fill="#E4751F"/>
<path d="M9.67922 8.23223L9.62432 9.49154L10.9255 6.96193L9.67922 8.23223Z" fill="#E4751F"/>
<path d="M6.16549 7.09941L5.87451 8.68866L6.23686 10.5639L6.31922 8.09475L6.16549 7.09941Z" fill="#E4751F"/>
<path d="M7.84 7.09941L7.69176 8.08926L7.75765 10.5639L8.12549 8.68866L7.84 7.09941Z" fill="#E4751F"/>
<path d="M8.12549 8.68866L7.75765 10.5639L8.02118 10.7453L9.62432 9.49154L9.67922 8.23223L8.12549 8.68866Z" fill="#F6851B"/>
<path d="M4.32627 8.23223L4.3702 9.49154L5.97333 10.7453L6.23686 10.5639L5.87451 8.68866L4.32627 8.23223Z" fill="#F6851B"/>
<path d="M8.15294 12.4721L8.16941 11.9607L8.03216 11.8397H5.96235L5.83608 11.9607L5.84706 12.4721L4.11765 11.6527L4.72157 12.1476L5.94588 13H8.04863L9.27843 12.1476L9.88235 11.6527L8.15294 12.4721Z" fill="#C0AD9E"/>
<path d="M8.02118 10.7453L7.75765 10.5639H6.23686L5.97333 10.7453L5.83608 11.9607L5.96235 11.8397H8.03216L8.16941 11.9607L8.02118 10.7453Z" fill="#161616"/>
<path d="M13.5333 4.32783L14 2.08418L13.3027 0L8.02118 3.9264L10.0526 5.64763L12.9239 6.489L13.5608 5.74662L13.2863 5.54865L13.7255 5.14721L13.3851 4.88325L13.8243 4.5478L13.5333 4.32783Z" fill="#763D16"/>
<path d="M0 2.08418L0.466667 4.32783L0.170196 4.5478L0.609412 4.88325L0.27451 5.14721L0.713726 5.54865L0.439216 5.74662L1.07059 6.489L3.94196 5.64763L5.97333 3.9264L0.691765 0L0 2.08418Z" fill="#763D16"/>
<path d="M12.9239 6.489L10.0526 5.64763L10.9255 6.96193L9.62432 9.49154L11.3373 9.46954H13.8902L12.9239 6.489Z" fill="#F6851B"/>
<path d="M3.94196 5.64763L1.07059 6.489L0.115294 9.46954H2.66275L4.3702 9.49154L3.07451 6.96193L3.94196 5.64763Z" fill="#F6851B"/>
<path d="M7.84 7.09941L8.02118 3.9264L8.85569 1.66624H5.1498L5.97333 3.9264L6.16549 7.09941L6.23137 8.10025L6.23686 10.5639H7.75765L7.76863 8.10025L7.84 7.09941Z" fill="#F6851B"/>
</svg>
