<svg width="10" height="10" viewBox="0 0 10 10" fill="none" xmlns="http://www.w3.org/2000/svg">
<path d="M4.99758 10C7.73804 10 10 7.73694 10 5C10 2.26306 7.7332 0 4.99275 0C2.25713 0 0 2.26306 0 5C0 7.73694 2.26196 10 4.99758 10ZM4.99758 9.00387C2.77912 9.00387 1.00532 7.21954 1.00532 5C1.00532 2.78046 2.77912 1.00097 4.99275 1.00097C7.21121 1.00097 8.99468 2.78046 8.99952 5C9.00435 7.21954 7.21605 9.00387 4.99758 9.00387ZM4.89125 5.96228C5.15708 5.96228 5.32624 5.80754 5.34074 5.60928C5.34074 5.59478 5.34074 5.5706 5.34558 5.55126C5.36008 5.30464 5.52924 5.14023 5.8434 4.9323C6.32189 4.62282 6.62639 4.34236 6.62639 3.78627C6.62639 2.98356 5.9014 2.51934 5.04108 2.51934C4.2146 2.51934 3.64911 2.89652 3.49927 3.35106C3.47028 3.43327 3.45094 3.51547 3.45094 3.60251C3.45094 3.83946 3.63461 3.98453 3.85694 3.98453C4.1421 3.98453 4.20493 3.83946 4.35476 3.67505C4.50942 3.43327 4.71242 3.29304 4.99758 3.29304C5.37941 3.29304 5.63074 3.51064 5.63074 3.83462C5.63074 4.12959 5.42774 4.28917 5.01692 4.56963C4.67376 4.81141 4.42243 5.05803 4.42243 5.49323V5.54642C4.42243 5.82205 4.59159 5.96228 4.89125 5.96228ZM4.88159 7.44681C5.19091 7.44681 5.44708 7.22437 5.44708 6.91489C5.44708 6.61025 5.19575 6.38298 4.88159 6.38298C4.56742 6.38298 4.31126 6.61025 4.31126 6.91489C4.31126 7.21954 4.56742 7.44681 4.88159 7.44681Z" fill="white"/>
</svg>
